<?xml version="1.0" encoding="UTF-8" standalone="no"?>
<!DOCTYPE svg PUBLIC "-//W3C//DTD SVG 1.1//EN"
 "http://www.w3.org/Graphics/SVG/1.1/DTD/svg11.dtd">
<!-- Generated by graphviz version 2.43.0 (0)
 -->
<!-- Title: GradingTestFlow Pages: 1 -->
<svg width="1759pt" height="1020pt"
 viewBox="0.00 0.00 1055.46 612.00" xmlns="http://www.w3.org/2000/svg" xmlns:xlink="http://www.w3.org/1999/xlink">
<g id="graph0" class="graph" transform="scale(0.97 0.97) rotate(0) translate(4 1047.43)">
<title>GradingTestFlow</title>
<polygon fill="white" stroke="transparent" points="-4,4 -4,-1047.43 1809.29,-1047.43 1809.29,4 -4,4"/>
<text text-anchor="middle" x="902.65" y="-1030.63" font-family="Helvetica,sans-Serif" font-size="11.00">QAGRedo — grading validation paths &amp; E2E replacement&#45;question loop</text>
<g id="clust1" class="cluster">
<title>cluster_fast</title>
<polygon fill="none" stroke="#64748b" stroke-dasharray="5,2" points="12.26,-866 12.26,-954 505.73,-954 505.73,-866 12.26,-866"/>
<text text-anchor="middle" x="258.99" y="-941.2" font-family="Helvetica,sans-Serif" font-size="11.00">Fast / isolated (no full pipeline)</text>
</g>
<g id="clust2" class="cluster">
<title>cluster_batch</title>
<polygon fill="none" stroke="#64748b" stroke-dasharray="5,2" points="517.99,-788 517.99,-948.5 809.16,-948.5 809.16,-788 517.99,-788"/>
<text text-anchor="middle" x="663.58" y="-935.7" font-family="Helvetica,sans-Serif" font-size="11.00">Batch on saved QA payloads</text>
</g>
<g id="clust3" class="cluster">
<title>cluster_e2e</title>
<polygon fill="none" stroke="#0f766e" stroke-dasharray="5,2" points="821.42,-8 821.42,-948.5 1370.06,-948.5 1370.06,-8 821.42,-8"/>
<text text-anchor="middle" x="1095.74" y="-935.7" font-family="Helvetica,sans-Serif" font-size="11.00">End&#45;to&#45;end: run_qa_pipeline.py (run.sh)</text>
</g>
<g id="clust4" class="cluster">
<title>cluster_round</title>
<polygon fill="#fff7ed" stroke="#c2410c" points="833.68,-277 833.68,-769 1357.8,-769 1357.8,-277 833.68,-277"/>
<text text-anchor="middle" x="1095.74" y="-756.2" font-family="Helvetica,sans-Serif" font-size="11.00">Round loop (max_question_regeneration_rounds, default 3)</text>
</g>
<g id="clust5" class="cluster">
<title>cluster_meta</title>
<polygon fill="none" stroke="#94a3b8" stroke-dasharray="5,2" points="1382.32,-874 1382.32,-946 1793.03,-946 1793.03,-874 1382.32,-874"/>
<text text-anchor="middle" x="1587.68" y="-933.2" font-family="Helvetica,sans-Serif" font-size="11.00">Quality band (not the checker)</text>
</g>
<!-- start -->
<g id="node1" class="node">
<title>start</title>
<ellipse fill="#e0e7ff" stroke="black" cx="663.64" cy="-1002" rx="88.28" ry="21.43"/>
<text text-anchor="middle" x="663.64" y="-1005" font-family="Helvetica,sans-Serif" font-size="10.00">Goal: validate grading</text>
<text text-anchor="middle" x="663.64" y="-994" font-family="Helvetica,sans-Serif" font-size="10.00">or run full pipeline</text>
</g>
<!-- smoke -->
<g id="node2" class="node">
<title>smoke</title>
<path fill="#f8fafc" stroke="black" d="M200.14,-926C200.14,-926 75.14,-926 75.14,-926 69.14,-926 63.14,-920 63.14,-914 63.14,-914 63.14,-886 63.14,-886 63.14,-880 69.14,-874 75.14,-874 75.14,-874 200.14,-874 200.14,-874 206.14,-874 212.14,-880 212.14,-886 212.14,-886 212.14,-914 212.14,-914 212.14,-920 206.14,-926 200.14,-926"/>
<text text-anchor="middle" x="137.64" y="-914" font-family="Helvetica,sans-Serif" font-size="10.00">smoke_strict_llm_judge.py</text>
<text text-anchor="middle" x="137.64" y="-903" font-family="Helvetica,sans-Serif" font-size="10.00">• data/txt/00001.txt …</text>
<text text-anchor="middle" x="137.64" y="-892" font-family="Helvetica,sans-Serif" font-size="10.00">• check_hallucination (llm)</text>
<text text-anchor="middle" x="137.64" y="-881" font-family="Helvetica,sans-Serif" font-size="10.00">• no grade_qa_results</text>
</g>
<!-- start&#45;&gt;smoke -->
<g id="edge1" class="edge">
<title>start&#45;&gt;smoke</title>
<path fill="none" stroke="black" d="M581.54,-994.1C509.14,-987.07 401.1,-974.29 308.64,-954 278.91,-947.47 246.89,-938.18 218.7,-929.2"/>
<polygon fill="black" stroke="black" points="219.48,-925.77 208.89,-926.04 217.34,-932.44 219.48,-925.77"/>
</g>
<!-- manual -->
<g id="node3" class="node">
<title>manual</title>
<path fill="#f8fafc" stroke="black" d="M444.14,-920.5C444.14,-920.5 329.14,-920.5 329.14,-920.5 323.14,-920.5 317.14,-914.5 317.14,-908.5 317.14,-908.5 317.14,-891.5 317.14,-891.5 317.14,-885.5 323.14,-879.5 329.14,-879.5 329.14,-879.5 444.14,-879.5 444.14,-879.5 450.14,-879.5 456.14,-885.5 456.14,-891.5 456.14,-891.5 456.14,-908.5 456.14,-908.5 456.14,-914.5 450.14,-920.5 444.14,-920.5"/>
<text text-anchor="middle" x="386.64" y="-908.5" font-family="Helvetica,sans-Serif" font-size="10.00">Manual / REPL</text>
<text text-anchor="middle" x="386.64" y="-897.5" font-family="Helvetica,sans-Serif" font-size="10.00">• check_hallucination(...)</text>
<text text-anchor="middle" x="386.64" y="-886.5" font-family="Helvetica,sans-Serif" font-size="10.00">• set_llm_config() for llm</text>
</g>
<!-- start&#45;&gt;manual -->
<g id="edge2" class="edge">
<title>start&#45;&gt;manual</title>
<path fill="none" stroke="black" d="M609.09,-985.22C580.46,-976.61 544.93,-965.4 513.64,-954 489.19,-945.09 462.55,-934.16 440.01,-924.55"/>
<polygon fill="black" stroke="black" points="441.2,-921.25 430.63,-920.52 438.44,-927.68 441.2,-921.25"/>
</g>
<!-- gscript -->
<g id="node4" class="node">
<title>gscript</title>
<path fill="#f8fafc" stroke="black" d="M738.64,-920.5C738.64,-920.5 588.64,-920.5 588.64,-920.5 582.64,-920.5 576.64,-914.5 576.64,-908.5 576.64,-908.5 576.64,-891.5 576.64,-891.5 576.64,-885.5 582.64,-879.5 588.64,-879.5 588.64,-879.5 738.64,-879.5 738.64,-879.5 744.64,-879.5 750.64,-885.5 750.64,-891.5 750.64,-891.5 750.64,-908.5 750.64,-908.5 750.64,-914.5 744.64,-920.5 738.64,-920.5"/>
<text text-anchor="middle" x="663.64" y="-908.5" font-family="Helvetica,sans-Serif" font-size="10.00">scripts/utils/grade_qa_results.py</text>
<text text-anchor="middle" x="663.64" y="-897.5" font-family="Helvetica,sans-Serif" font-size="10.00">• *qa_results*.json</text>
<text text-anchor="middle" x="663.64" y="-886.5" font-family="Helvetica,sans-Serif" font-size="10.00">• strict llm judge grading path</text>
</g>
<!-- start&#45;&gt;gscript -->
<g id="edge3" class="edge">
<title>start&#45;&gt;gscript</title>
<path fill="none" stroke="black" d="M663.64,-980.76C663.64,-966.34 663.64,-946.73 663.64,-930.56"/>
<polygon fill="black" stroke="black" points="667.14,-930.53 663.64,-920.53 660.14,-930.53 667.14,-930.53"/>
</g>
<!-- pipeline -->
<g id="node6" class="node">
<title>pipeline</title>
<path fill="#f8fafc" stroke="black" d="M1120.64,-920.5C1120.64,-920.5 908.64,-920.5 908.64,-920.5 902.64,-920.5 896.64,-914.5 896.64,-908.5 896.64,-908.5 896.64,-891.5 896.64,-891.5 896.64,-885.5 902.64,-879.5 908.64,-879.5 908.64,-879.5 1120.64,-879.5 1120.64,-879.5 1126.64,-879.5 1132.64,-885.5 1132.64,-891.5 1132.64,-891.5 1132.64,-908.5 1132.64,-908.5 1132.64,-914.5 1126.64,-920.5 1120.64,-920.5"/>
<text text-anchor="middle" x="1014.64" y="-908.5" font-family="Helvetica,sans-Serif" font-size="10.00">Start document:</text>
<text text-anchor="middle" x="1014.64" y="-897.5" font-family="Helvetica,sans-Serif" font-size="10.00">pending_q_count = num_questions</text>
<text text-anchor="middle" x="1014.64" y="-886.5" font-family="Helvetica,sans-Serif" font-size="10.00">(config: question_generation.num_questions)</text>
</g>
<!-- start&#45;&gt;pipeline -->
<g id="edge4" class="edge">
<title>start&#45;&gt;pipeline</title>
<path fill="none" stroke="black" d="M718.87,-985.26C777.36,-968.6 870.19,-942.16 936.24,-923.34"/>
<polygon fill="black" stroke="black" points="937.53,-926.61 946.19,-920.5 935.61,-919.88 937.53,-926.61"/>
</g>
<!-- quick -->
<g id="node17" class="node">
<title>quick</title>
<path fill="#f8fafc" stroke="black" d="M1701.14,-918C1701.14,-918 1474.14,-918 1474.14,-918 1468.14,-918 1462.14,-912 1462.14,-906 1462.14,-906 1462.14,-894 1462.14,-894 1462.14,-888 1468.14,-882 1474.14,-882 1474.14,-882 1701.14,-882 1701.14,-882 1707.14,-882 1713.14,-888 1713.14,-894 1713.14,-894 1713.14,-906 1713.14,-906 1713.14,-912 1707.14,-918 1701.14,-918"/>
<text text-anchor="middle" x="1587.64" y="-903" font-family="Helvetica,sans-Serif" font-size="10.00">quick_test.py</text>
<text text-anchor="middle" x="1587.64" y="-892" font-family="Helvetica,sans-Serif" font-size="10.00">synthetic grading → evaluate_document_quality</text>
</g>
<!-- start&#45;&gt;quick -->
<g id="edge5" class="edge">
<title>start&#45;&gt;quick</title>
<path fill="none" stroke="black" d="M751.91,-1000.15C886.72,-997.74 1151.64,-988.56 1373.64,-954 1423.54,-946.23 1478.84,-932.4 1520.72,-920.81"/>
<polygon fill="black" stroke="black" points="1521.84,-924.13 1530.53,-918.07 1519.96,-917.39 1521.84,-924.13"/>
</g>
<!-- payload -->
<g id="node5" class="node">
<title>payload</title>
<polygon fill="#fef9c3" stroke="black" points="740.14,-837.5 581.14,-837.5 581.14,-796.5 746.14,-796.5 746.14,-831.5 740.14,-837.5"/>
<polyline fill="none" stroke="black" points="740.14,-837.5 740.14,-831.5 "/>
<polyline fill="none" stroke="black" points="746.14,-831.5 740.14,-831.5 "/>
<text text-anchor="middle" x="663.64" y="-825.5" font-family="Helvetica,sans-Serif" font-size="10.00">Body text fields:</text>
<text text-anchor="middle" x="663.64" y="-814.5" font-family="Helvetica,sans-Serif" font-size="10.00">content → text → body →</text>
<text text-anchor="middle" x="663.64" y="-803.5" font-family="Helvetica,sans-Serif" font-size="10.00">document → article → passage</text>
</g>
<!-- gscript&#45;&gt;payload -->
<g id="edge6" class="edge">
<title>gscript&#45;&gt;payload</title>
<path fill="none" stroke="black" stroke-dasharray="1,5" d="M663.64,-879.39C663.64,-866.75 663.64,-850.37 663.64,-837.71"/>
</g>
<!-- setcfg -->
<g id="node7" class="node">
<title>setcfg</title>
<path fill="#f8fafc" stroke="black" d="M1108.64,-837.5C1108.64,-837.5 920.64,-837.5 920.64,-837.5 914.64,-837.5 908.64,-831.5 908.64,-825.5 908.64,-825.5 908.64,-808.5 908.64,-808.5 908.64,-802.5 914.64,-796.5 920.64,-796.5 920.64,-796.5 1108.64,-796.5 1108.64,-796.5 1114.64,-796.5 1120.64,-802.5 1120.64,-808.5 1120.64,-808.5 1120.64,-825.5 1120.64,-825.5 1120.64,-831.5 1114.64,-837.5 1108.64,-837.5"/>
<text text-anchor="middle" x="1014.64" y="-825.5" font-family="Helvetica,sans-Serif" font-size="10.00">set_llm_config(config)</text>
<text text-anchor="middle" x="1014.64" y="-814.5" font-family="Helvetica,sans-Serif" font-size="10.00">hallucination.method (llm strict default)</text>
<text text-anchor="middle" x="1014.64" y="-803.5" font-family="Helvetica,sans-Serif" font-size="10.00">min_confidence_threshold</text>
</g>
<!-- pipeline&#45;&gt;setcfg -->
<g id="edge7" class="edge">
<title>pipeline&#45;&gt;setcfg</title>
<path fill="none" stroke="black" d="M1014.64,-879.39C1014.64,-869.91 1014.64,-858.33 1014.64,-847.78"/>
<polygon fill="black" stroke="black" points="1018.14,-847.71 1014.64,-837.71 1011.14,-847.71 1018.14,-847.71"/>
</g>
<!-- genq -->
<g id="node8" class="node">
<title>genq</title>
<path fill="#f8fafc" stroke="black" d="M1111.14,-741.5C1111.14,-741.5 918.14,-741.5 918.14,-741.5 912.14,-741.5 906.14,-735.5 906.14,-729.5 906.14,-729.5 906.14,-712.5 906.14,-712.5 906.14,-706.5 912.14,-700.5 918.14,-700.5 918.14,-700.5 1111.14,-700.5 1111.14,-700.5 1117.14,-700.5 1123.14,-706.5 1123.14,-712.5 1123.14,-712.5 1123.14,-729.5 1123.14,-729.5 1123.14,-735.5 1117.14,-741.5 1111.14,-741.5"/>
<text text-anchor="middle" x="1014.64" y="-729.5" font-family="Helvetica,sans-Serif" font-size="10.00">1) generate_questions</text>
<text text-anchor="middle" x="1014.64" y="-718.5" font-family="Helvetica,sans-Serif" font-size="10.00">num_questions = pending_q_count</text>
<text text-anchor="middle" x="1014.64" y="-707.5" font-family="Helvetica,sans-Serif" font-size="10.00">(replacement set when pending &lt; initial)</text>
</g>
<!-- setcfg&#45;&gt;genq -->
<g id="edge8" class="edge">
<title>setcfg&#45;&gt;genq</title>
<path fill="none" stroke="black" d="M1014.64,-796.07C1014.64,-783.14 1014.64,-766.08 1014.64,-751.59"/>
<polygon fill="black" stroke="black" points="1018.14,-751.58 1014.64,-741.58 1011.14,-751.58 1018.14,-751.58"/>
</g>
<!-- gena -->
<g id="node9" class="node">
<title>gena</title>
<path fill="#f8fafc" stroke="black" d="M1073.14,-663C1073.14,-663 912.14,-663 912.14,-663 906.14,-663 900.14,-657 900.14,-651 900.14,-651 900.14,-639 900.14,-639 900.14,-633 906.14,-627 912.14,-627 912.14,-627 1073.14,-627 1073.14,-627 1079.14,-627 1085.14,-633 1085.14,-639 1085.14,-639 1085.14,-651 1085.14,-651 1085.14,-657 1079.14,-663 1073.14,-663"/>
<text text-anchor="middle" x="992.64" y="-642.5" font-family="Helvetica,sans-Serif" font-size="10.00">2) generate_answers_from_results</text>
</g>
<!-- genq&#45;&gt;gena -->
<g id="edge9" class="edge">
<title>genq&#45;&gt;gena</title>
<path fill="none" stroke="black" d="M1008.75,-700.17C1006.27,-691.83 1003.35,-682 1000.68,-673.02"/>
<polygon fill="black" stroke="black" points="1004.01,-671.95 997.81,-663.36 997.3,-673.95 1004.01,-671.95"/>
</g>
<!-- gr -->
<g id="node10" class="node">
<title>gr</title>
<path fill="#f8fafc" stroke="black" d="M1067.14,-590C1067.14,-590 918.14,-590 918.14,-590 912.14,-590 906.14,-584 906.14,-578 906.14,-578 906.14,-566 906.14,-566 906.14,-560 912.14,-554 918.14,-554 918.14,-554 1067.14,-554 1067.14,-554 1073.14,-554 1079.14,-560 1079.14,-566 1079.14,-566 1079.14,-578 1079.14,-578 1079.14,-584 1073.14,-590 1067.14,-590"/>
<text text-anchor="middle" x="992.64" y="-569.5" font-family="Helvetica,sans-Serif" font-size="10.00">3) grade_qa_results([qa_result])</text>
</g>
<!-- gena&#45;&gt;gr -->
<g id="edge10" class="edge">
<title>gena&#45;&gt;gr</title>
<path fill="none" stroke="black" d="M992.64,-626.81C992.64,-618.79 992.64,-609.05 992.64,-600.07"/>
<polygon fill="black" stroke="black" points="996.14,-600.03 992.64,-590.03 989.14,-600.03 996.14,-600.03"/>
</g>
<!-- pairs -->
<g id="node11" class="node">
<title>pairs</title>
<path fill="#f8fafc" stroke="black" d="M1040.14,-488C1040.14,-488 945.14,-488 945.14,-488 939.14,-488 933.14,-482 933.14,-476 933.14,-476 933.14,-448 933.14,-448 933.14,-442 939.14,-436 945.14,-436 945.14,-436 1040.14,-436 1040.14,-436 1046.14,-436 1052.14,-442 1052.14,-448 1052.14,-448 1052.14,-476 1052.14,-476 1052.14,-482 1046.14,-488 1040.14,-488"/>
<text text-anchor="middle" x="992.64" y="-476" font-family="Helvetica,sans-Serif" font-size="10.00">4) build_qa_pairs +</text>
<text text-anchor="middle" x="992.64" y="-465" font-family="Helvetica,sans-Serif" font-size="10.00">_merge_pair_grading</text>
<text text-anchor="middle" x="992.64" y="-454" font-family="Helvetica,sans-Serif" font-size="10.00">(keep last round only</text>
<text text-anchor="middle" x="992.64" y="-443" font-family="Helvetica,sans-Serif" font-size="10.00">for export)</text>
</g>
<!-- gr&#45;&gt;pairs -->
<g id="edge11" class="edge">
<title>gr&#45;&gt;pairs</title>
<path fill="none" stroke="black" d="M992.64,-553.65C992.64,-538.82 992.64,-517.03 992.64,-498.52"/>
<polygon fill="black" stroke="black" points="996.14,-498.36 992.64,-488.36 989.14,-498.36 996.14,-498.36"/>
</g>
<!-- count -->
<g id="node12" class="node">
<title>count</title>
<path fill="#f8fafc" stroke="black" d="M1076.14,-399.5C1076.14,-399.5 909.14,-399.5 909.14,-399.5 903.14,-399.5 897.14,-393.5 897.14,-387.5 897.14,-387.5 897.14,-370.5 897.14,-370.5 897.14,-364.5 903.14,-358.5 909.14,-358.5 909.14,-358.5 1076.14,-358.5 1076.14,-358.5 1082.14,-358.5 1088.14,-364.5 1088.14,-370.5 1088.14,-370.5 1088.14,-387.5 1088.14,-387.5 1088.14,-393.5 1082.14,-399.5 1076.14,-399.5"/>
<text text-anchor="middle" x="992.64" y="-387.5" font-family="Helvetica,sans-Serif" font-size="10.00">5) failed_count = pairs where</text>
<text text-anchor="middle" x="992.64" y="-376.5" font-family="Helvetica,sans-Serif" font-size="10.00">NOT (is_grounded AND</text>
<text text-anchor="middle" x="992.64" y="-365.5" font-family="Helvetica,sans-Serif" font-size="10.00">conf &gt;= min_confidence_threshold)</text>
</g>
<!-- pairs&#45;&gt;count -->
<g id="edge12" class="edge">
<title>pairs&#45;&gt;count</title>
<path fill="none" stroke="black" d="M992.64,-435.82C992.64,-427.49 992.64,-418.16 992.64,-409.55"/>
<polygon fill="black" stroke="black" points="996.14,-409.51 992.64,-399.51 989.14,-409.51 996.14,-409.51"/>
</g>
<!-- gate -->
<g id="node13" class="node">
<title>gate</title>
<path fill="#ffedd5" stroke="black" d="M1083.72,-319.61C1083.72,-319.61 952.88,-304.39 952.88,-304.39 946.92,-303.69 946.92,-302.31 952.88,-301.61 952.88,-301.61 1083.72,-286.39 1083.72,-286.39 1089.68,-285.69 1101.6,-285.69 1107.56,-286.39 1107.56,-286.39 1238.41,-301.61 1238.41,-301.61 1244.37,-302.31 1244.37,-303.69 1238.41,-304.39 1238.41,-304.39 1107.56,-319.61 1107.56,-319.61 1101.6,-320.31 1089.68,-320.31 1083.72,-319.61"/>
<text text-anchor="middle" x="1095.64" y="-300.5" font-family="Helvetica,sans-Serif" font-size="10.00">6) pending_q_count = failed_count</text>
</g>
<!-- count&#45;&gt;gate -->
<g id="edge13" class="edge">
<title>count&#45;&gt;gate</title>
<path fill="none" stroke="black" d="M1019.98,-358.36C1034.42,-347.98 1052.15,-335.25 1066.82,-324.71"/>
<polygon fill="black" stroke="black" points="1068.97,-327.47 1075.05,-318.8 1064.89,-321.79 1068.97,-327.47"/>
</g>
<!-- gate&#45;&gt;genq -->
<g id="edge14" class="edge">
<title>gate&#45;&gt;genq</title>
<path fill="none" stroke="#c2410c" d="M1100.67,-320.65C1115.8,-374.15 1156.28,-545.07 1094.64,-663 1087.97,-675.77 1076.99,-686.32 1065.27,-694.72"/>
<polygon fill="#c2410c" stroke="#c2410c" points="1063.03,-692.01 1056.65,-700.47 1066.92,-697.83 1063.03,-692.01"/>
<text text-anchor="middle" x="1186.64" y="-528.8" font-family="Helvetica,sans-Serif" font-size="9.00" fill="#9a3412">pending &gt; 0</text>
<text text-anchor="middle" x="1186.64" y="-518.8" font-family="Helvetica,sans-Serif" font-size="9.00" fill="#9a3412">→ generate replacement</text>
<text text-anchor="middle" x="1186.64" y="-508.8" font-family="Helvetica,sans-Serif" font-size="9.00" fill="#9a3412">questions (count = failed)</text>
</g>
<!-- allp -->
<g id="node14" class="node">
<title>allp</title>
<path fill="#f8fafc" stroke="black" d="M1165.64,-219C1165.64,-219 1025.64,-219 1025.64,-219 1019.64,-219 1013.64,-213 1013.64,-207 1013.64,-207 1013.64,-179 1013.64,-179 1013.64,-173 1019.64,-167 1025.64,-167 1025.64,-167 1165.64,-167 1165.64,-167 1171.64,-167 1177.64,-173 1177.64,-179 1177.64,-179 1177.64,-207 1177.64,-207 1177.64,-213 1171.64,-219 1165.64,-219"/>
<text text-anchor="middle" x="1095.64" y="-207" font-family="Helvetica,sans-Serif" font-size="10.00">After loop: last round only.</text>
<text text-anchor="middle" x="1095.64" y="-196" font-family="Helvetica,sans-Serif" font-size="10.00">All pass? → save passing only.</text>
<text text-anchor="middle" x="1095.64" y="-185" font-family="Helvetica,sans-Serif" font-size="10.00">Else → save full final</text>
<text text-anchor="middle" x="1095.64" y="-174" font-family="Helvetica,sans-Serif" font-size="10.00">round (incl. failures).</text>
</g>
<!-- gate&#45;&gt;allp -->
<g id="edge15" class="edge">
<title>gate&#45;&gt;allp</title>
<path fill="none" stroke="#0f766e" d="M1095.64,-284.65C1095.64,-269.82 1095.64,-248.03 1095.64,-229.52"/>
<polygon fill="#0f766e" stroke="#0f766e" points="1099.14,-229.36 1095.64,-219.36 1092.14,-229.36 1099.14,-229.36"/>
<text text-anchor="middle" x="1146.64" y="-259.8" font-family="Helvetica,sans-Serif" font-size="9.00">pending = 0 (all pass)</text>
<text text-anchor="middle" x="1146.64" y="-249.8" font-family="Helvetica,sans-Serif" font-size="9.00">OR last round reached</text>
<text text-anchor="middle" x="1146.64" y="-239.8" font-family="Helvetica,sans-Serif" font-size="9.00">(still append pairs)</text>
</g>
<!-- analysis -->
<g id="node15" class="node">
<title>analysis</title>
<path fill="#f8fafc" stroke="black" d="M1142.64,-130.5C1142.64,-130.5 1048.64,-130.5 1048.64,-130.5 1042.64,-130.5 1036.64,-124.5 1036.64,-118.5 1036.64,-118.5 1036.64,-101.5 1036.64,-101.5 1036.64,-95.5 1042.64,-89.5 1048.64,-89.5 1048.64,-89.5 1142.64,-89.5 1142.64,-89.5 1148.64,-89.5 1154.64,-95.5 1154.64,-101.5 1154.64,-101.5 1154.64,-118.5 1154.64,-118.5 1154.64,-124.5 1148.64,-130.5 1142.64,-130.5"/>
<text text-anchor="middle" x="1095.64" y="-118.5" font-family="Helvetica,sans-Serif" font-size="10.00">Save *_analysis.json</text>
<text text-anchor="middle" x="1095.64" y="-107.5" font-family="Helvetica,sans-Serif" font-size="10.00">+ grading_summary</text>
<text text-anchor="middle" x="1095.64" y="-96.5" font-family="Helvetica,sans-Serif" font-size="10.00">(match save policy)</text>
</g>
<!-- allp&#45;&gt;analysis -->
<g id="edge16" class="edge">
<title>allp&#45;&gt;analysis</title>
<path fill="none" stroke="black" d="M1095.64,-166.82C1095.64,-158.49 1095.64,-149.16 1095.64,-140.55"/>
<polygon fill="black" stroke="black" points="1099.14,-140.51 1095.64,-130.51 1092.14,-140.51 1099.14,-140.51"/>
</g>
<!-- summarize -->
<g id="node16" class="node">
<title>summarize</title>
<path fill="#f8fafc" stroke="black" d="M1152.14,-52C1152.14,-52 1039.14,-52 1039.14,-52 1033.14,-52 1027.14,-46 1027.14,-40 1027.14,-40 1027.14,-28 1027.14,-28 1027.14,-22 1033.14,-16 1039.14,-16 1039.14,-16 1152.14,-16 1152.14,-16 1158.14,-16 1164.14,-22 1164.14,-28 1164.14,-28 1164.14,-40 1164.14,-40 1164.14,-46 1158.14,-52 1152.14,-52"/>
<text text-anchor="middle" x="1095.64" y="-31.5" font-family="Helvetica,sans-Serif" font-size="10.00">summarize_run.sh &#45;&#45;json</text>
</g>
<!-- analysis&#45;&gt;summarize -->
<g id="edge17" class="edge">
<title>analysis&#45;&gt;summarize</title>
<path fill="none" stroke="black" d="M1095.64,-89.17C1095.64,-81.01 1095.64,-71.42 1095.64,-62.6"/>
<polygon fill="black" stroke="black" points="1099.14,-62.36 1095.64,-52.36 1092.14,-62.36 1099.14,-62.36"/>
</g>
</g>
</svg>
